<?xml version="1.0" encoding="UTF-8" standalone="no"?>
<!DOCTYPE svg PUBLIC "-//W3C//DTD SVG 1.1//EN" "http://www.w3.org/Graphics/SVG/1.1/DTD/svg11.dtd">
<!-- Generated by graphviz version 2.28.0 (20110507.0327)
 -->
<!-- Title: G Pages: 1 -->
<svg xmlns="http://www.w3.org/2000/svg" xmlns:xlink="http://www.w3.org/1999/xlink" width="586pt" height="528pt">
<g id="viewport" class="graph" transform="scale(1 1) rotate(0) translate(4 524)">
<title>G</title>
<polygon fill="white" stroke="white" points="-4,5 -4,-524 583,-524 583,5 -4,5"/>
<g id="graph2" class="cluster"><title>cluster_PEAR2</title>
<polyline fill="none" stroke="gray" points="20,-152 558,-152 "/>
<path fill="none" stroke="gray" d="M558,-152C564,-152 570,-158 570,-164"/>
<polyline fill="none" stroke="gray" points="570,-164 570,-500 "/>
<path fill="none" stroke="gray" d="M570,-500C570,-506 564,-512 558,-512"/>
<polyline fill="none" stroke="gray" points="558,-512 20,-512 "/>
<path fill="none" stroke="gray" d="M20,-512C14,-512 8,-506 8,-500"/>
<polyline fill="none" stroke="gray" points="8,-500 8,-164 "/>
<path fill="none" stroke="gray" d="M8,-164C8,-158 14,-152 20,-152"/>
<text text-anchor="middle" x="289" y="-499.2" font-family="Times New Roman,serif" font-size="11.00" fill="gray">PEAR2</text>
</g>
<g id="graph3" class="cluster"><title>cluster_PEAR2_Net</title>
<polyline fill="none" stroke="gray" points="28,-160 550,-160 "/>
<path fill="none" stroke="gray" d="M550,-160C556,-160 562,-166 562,-172"/>
<polyline fill="none" stroke="gray" points="562,-172 562,-472 "/>
<path fill="none" stroke="gray" d="M562,-472C562,-478 556,-484 550,-484"/>
<polyline fill="none" stroke="gray" points="550,-484 28,-484 "/>
<path fill="none" stroke="gray" d="M28,-484C22,-484 16,-478 16,-472"/>
<polyline fill="none" stroke="gray" points="16,-472 16,-172 "/>
<path fill="none" stroke="gray" d="M16,-172C16,-166 22,-160 28,-160"/>
<text text-anchor="middle" x="289" y="-471.2" font-family="Times New Roman,serif" font-size="11.00" fill="gray">Net</text>
</g>
<g id="graph4" class="cluster"><title>cluster_PEAR2_Net_Transmitter</title>
<polyline fill="none" stroke="gray" points="36,-168 542,-168 "/>
<path fill="none" stroke="gray" d="M542,-168C548,-168 554,-174 554,-180"/>
<polyline fill="none" stroke="gray" points="554,-180 554,-444 "/>
<path fill="none" stroke="gray" d="M554,-444C554,-450 548,-456 542,-456"/>
<polyline fill="none" stroke="gray" points="542,-456 36,-456 "/>
<path fill="none" stroke="gray" d="M36,-456C30,-456 24,-450 24,-444"/>
<polyline fill="none" stroke="gray" points="24,-444 24,-180 "/>
<path fill="none" stroke="gray" d="M24,-180C24,-174 30,-168 36,-168"/>
<text text-anchor="middle" x="289" y="-443.2" font-family="Times New Roman,serif" font-size="11.00" fill="gray">Transmitter</text>
</g>
<!-- _PEAR2_Net_Transmitter_Exception -->
<g id="node4" class="node"><title>_PEAR2_Net_Transmitter_Exception</title>
<a xlink:href="db_Exception.html" xlink:title="Exception" target="_parent">
<polygon fill="none" stroke="black" points="283.5,-293 206.5,-293 206.5,-257 283.5,-257 283.5,-293"/>
<text text-anchor="middle" x="245" y="-272.2" font-family="Courier New" font-size="11.00">Exception</text>
</a>
</g>
<!-- _PEAR2_Net_Transmitter_FilterCollection -->
<g id="node5" class="node"><title>_PEAR2_Net_Transmitter_FilterCollection</title>
<a xlink:href="db_FilterCollection.html" xlink:title="FilterCollection" target="_parent">
<polygon fill="none" stroke="black" points="535.5,-212 410.5,-212 410.5,-176 535.5,-176 535.5,-212"/>
<text text-anchor="middle" x="473" y="-191.2" font-family="Courier New" font-size="11.00">FilterCollection</text>
</a>
</g>
<!-- _SeekableIterator -->
<g id="node20" class="node"><title>_SeekableIterator</title>
<ellipse fill="none" stroke="black" cx="245" cy="-18" rx="74.187" ry="18"/>
<text text-anchor="middle" x="245" y="-14.3" font-family="Times New Roman,serif" font-size="14.00" fill="gray">\\SeekableIterator</text>
</g>
<!-- _PEAR2_Net_Transmitter_FilterCollection&#45;&gt;_SeekableIterator -->
<g id="edge16" class="edge"><title>_PEAR2_Net_Transmitter_FilterCollection-&gt;_SeekableIterator</title>
<path fill="none" stroke="black" stroke-dasharray="1,5" d="M459.044,-175.654C436.096,-144.45 385.292,-80.9408 328,-45 321.483,-40.9118 314.283,-37.3775 306.936,-34.3394"/>
<polygon fill="none" stroke="black" points="308.181,-31.0685 297.591,-30.7522 305.672,-37.6035 308.181,-31.0685"/>
</g>
<!-- _Countable -->
<g id="node22" class="node"><title>_Countable</title>
<ellipse fill="none" stroke="black" cx="245" cy="-72" rx="52.7911" ry="18"/>
<text text-anchor="middle" x="245" y="-68.3" font-family="Times New Roman,serif" font-size="14.00" fill="gray">\\Countable</text>
</g>
<!-- _PEAR2_Net_Transmitter_FilterCollection&#45;&gt;_Countable -->
<g id="edge18" class="edge"><title>_PEAR2_Net_Transmitter_FilterCollection-&gt;_Countable</title>
<path fill="none" stroke="black" stroke-dasharray="1,5" d="M448.708,-175.809C421.155,-154.979 373.293,-120.915 328,-99 318.084,-94.2021 307.102,-89.9335 296.484,-86.2859"/>
<polygon fill="none" stroke="black" points="297.47,-82.9255 286.876,-83.1133 295.275,-89.5725 297.47,-82.9255"/>
</g>
<!-- _PEAR2_Net_Transmitter_NetworkStream -->
<g id="node6" class="node"><title>_PEAR2_Net_Transmitter_NetworkStream</title>
<a xlink:href="db_NetworkStream.html" xlink:title="NetworkStream" target="_parent">
<polygon fill="none" stroke="black" points="297,-401 193,-401 193,-365 297,-365 297,-401"/>
<text text-anchor="middle" x="245" y="-380.2" font-family="Courier New" font-size="11.00">NetworkStream</text>
</a>
</g>
<!-- _PEAR2_Net_Transmitter_Stream -->
<g id="node8" class="node"><title>_PEAR2_Net_Transmitter_Stream</title>
<a xlink:href="db_Stream.html" xlink:title="Stream" target="_parent">
<polygon fill="none" stroke="black" points="89.5,-401 32.5,-401 32.5,-365 89.5,-365 89.5,-401"/>
<text text-anchor="middle" x="61" y="-380.2" font-family="Courier New" font-size="11.00">Stream</text>
</a>
</g>
<!-- _PEAR2_Net_Transmitter_NetworkStream&#45;&gt;_PEAR2_Net_Transmitter_Stream -->
<g id="edge6" class="edge"><title>_PEAR2_Net_Transmitter_NetworkStream-&gt;_PEAR2_Net_Transmitter_Stream</title>
<path fill="none" stroke="black" d="M192.819,-383C163.302,-383 126.825,-383 99.8931,-383"/>
<polygon fill="none" stroke="black" points="99.7115,-379.5 89.7115,-383 99.7114,-386.5 99.7115,-379.5"/>
</g>
<!-- _PEAR2_Net_Transmitter_SocketException -->
<g id="node7" class="node"><title>_PEAR2_Net_Transmitter_SocketException</title>
<a xlink:href="db_SocketException.html" xlink:title="SocketException" target="_parent">
<polygon fill="none" stroke="black" points="532,-320 414,-320 414,-284 532,-284 532,-320"/>
<text text-anchor="middle" x="473" y="-299.2" font-family="Courier New" font-size="11.00">SocketException</text>
</a>
</g>
<!-- _PEAR2_Net_Transmitter_SocketException&#45;&gt;_PEAR2_Net_Transmitter_Exception -->
<g id="edge20" class="edge"><title>_PEAR2_Net_Transmitter_SocketException-&gt;_PEAR2_Net_Transmitter_Exception</title>
<path fill="none" stroke="black" stroke-dasharray="1,5" d="M413.799,-295.047C376.541,-290.596 328.796,-284.892 293.768,-280.707"/>
<polygon fill="none" stroke="black" points="294.134,-277.226 283.79,-279.515 293.304,-284.176 294.134,-277.226"/>
</g>
<!-- _RuntimeException -->
<g id="node15" class="node"><title>_RuntimeException</title>
<ellipse fill="none" stroke="black" cx="245" cy="-126" rx="82.5854" ry="18"/>
<text text-anchor="middle" x="245" y="-122.3" font-family="Times New Roman,serif" font-size="14.00" fill="gray">\\RuntimeException</text>
</g>
<!-- _PEAR2_Net_Transmitter_SocketException&#45;&gt;_RuntimeException -->
<g id="edge8" class="edge"><title>_PEAR2_Net_Transmitter_SocketException-&gt;_RuntimeException</title>
<path fill="none" stroke="black" d="M413.976,-284.112C409.013,-281.453 404.266,-278.429 400,-275 354.168,-238.159 372.415,-202.537 328,-164 319.652,-156.757 309.69,-150.623 299.635,-145.536"/>
<polygon fill="none" stroke="black" points="300.951,-142.287 290.417,-141.157 297.947,-148.609 300.951,-142.287"/>
</g>
<!-- _PEAR2_Net_Transmitter_StreamException -->
<g id="node9" class="node"><title>_PEAR2_Net_Transmitter_StreamException</title>
<a xlink:href="db_StreamException.html" xlink:title="StreamException" target="_parent">
<polygon fill="none" stroke="black" points="532,-266 414,-266 414,-230 532,-230 532,-266"/>
<text text-anchor="middle" x="473" y="-245.2" font-family="Courier New" font-size="11.00">StreamException</text>
</a>
</g>
<!-- _PEAR2_Net_Transmitter_StreamException&#45;&gt;_PEAR2_Net_Transmitter_Exception -->
<g id="edge22" class="edge"><title>_PEAR2_Net_Transmitter_StreamException-&gt;_PEAR2_Net_Transmitter_Exception</title>
<path fill="none" stroke="black" stroke-dasharray="1,5" d="M413.799,-254.953C376.541,-259.404 328.796,-265.108 293.768,-269.293"/>
<polygon fill="none" stroke="black" points="293.304,-265.824 283.79,-270.485 294.134,-272.774 293.304,-265.824"/>
</g>
<!-- _PEAR2_Net_Transmitter_StreamException&#45;&gt;_RuntimeException -->
<g id="edge10" class="edge"><title>_PEAR2_Net_Transmitter_StreamException-&gt;_RuntimeException</title>
<path fill="none" stroke="black" d="M418.075,-229.9C411.849,-227.192 405.696,-224.217 400,-221 364.464,-200.926 362.757,-185.395 328,-164 317.457,-157.51 305.623,-151.41 294.295,-146.077"/>
<polygon fill="none" stroke="black" points="295.487,-142.774 284.938,-141.786 292.569,-149.136 295.487,-142.774"/>
</g>
<!-- _PEAR2_Net_Transmitter_TcpClient -->
<g id="node10" class="node"><title>_PEAR2_Net_Transmitter_TcpClient</title>
<a xlink:href="db_TcpClient.html" xlink:title="TcpClient" target="_parent">
<polygon fill="none" stroke="black" points="511.5,-374 434.5,-374 434.5,-338 511.5,-338 511.5,-374"/>
<text text-anchor="middle" x="473" y="-353.2" font-family="Courier New" font-size="11.00">TcpClient</text>
</a>
</g>
<!-- _PEAR2_Net_Transmitter_TcpClient&#45;&gt;_PEAR2_Net_Transmitter_NetworkStream -->
<g id="edge12" class="edge"><title>_PEAR2_Net_Transmitter_TcpClient-&gt;_PEAR2_Net_Transmitter_NetworkStream</title>
<path fill="none" stroke="black" d="M434.427,-360.489C399.83,-364.622 347.872,-370.829 307.273,-375.68"/>
<polygon fill="none" stroke="black" points="306.728,-372.22 297.214,-376.882 307.559,-379.17 306.728,-372.22"/>
</g>
<!-- _PEAR2_Net_Transmitter_TcpServerConnection -->
<g id="node11" class="node"><title>_PEAR2_Net_Transmitter_TcpServerConnection</title>
<a xlink:href="db_TcpServerConnection.html" xlink:title="TcpServerConnection" target="_parent">
<polygon fill="none" stroke="black" points="545.5,-428 400.5,-428 400.5,-392 545.5,-392 545.5,-428"/>
<text text-anchor="middle" x="473" y="-407.2" font-family="Courier New" font-size="11.00">TcpServerConnection</text>
</a>
</g>
<!-- _PEAR2_Net_Transmitter_TcpServerConnection&#45;&gt;_PEAR2_Net_Transmitter_NetworkStream -->
<g id="edge14" class="edge"><title>_PEAR2_Net_Transmitter_TcpServerConnection-&gt;_PEAR2_Net_Transmitter_NetworkStream</title>
<path fill="none" stroke="black" d="M400.492,-401.457C370.416,-397.864 335.785,-393.727 306.944,-390.281"/>
<polygon fill="none" stroke="black" points="307.345,-386.804 297.001,-389.093 306.515,-393.755 307.345,-386.804"/>
</g>
</g>
<script xlink:href="js/SVGPan.js"/></svg>
