<?xml version="1.0" encoding="UTF-8" standalone="no"?>
<!DOCTYPE svg PUBLIC "-//W3C//DTD SVG 1.1//EN"
 "http://www.w3.org/Graphics/SVG/1.1/DTD/svg11.dtd">
<!-- Generated by graphviz version 2.28.0 (20110507.0327)
 -->
<!-- Title: G Pages: 1 -->
<svg width="580pt" height="582pt"
 viewBox="0.00 0.00 580.00 582.00" xmlns="http://www.w3.org/2000/svg" xmlns:xlink="http://www.w3.org/1999/xlink">
<g id="graph1" class="graph" transform="scale(1 1) rotate(0) translate(4 578)">
<title>G</title>
<polygon fill="white" stroke="white" points="-4,5 -4,-578 577,-578 577,5 -4,5"/>
<g id="graph2" class="cluster"><title>cluster_PEAR2</title>
<polyline fill="none" stroke="gray" points="20,-152 552,-152 "/>
<path fill="none" stroke="gray" d="M552,-152C558,-152 564,-158 564,-164"/>
<polyline fill="none" stroke="gray" points="564,-164 564,-554 "/>
<path fill="none" stroke="gray" d="M564,-554C564,-560 558,-566 552,-566"/>
<polyline fill="none" stroke="gray" points="552,-566 20,-566 "/>
<path fill="none" stroke="gray" d="M20,-566C14,-566 8,-560 8,-554"/>
<polyline fill="none" stroke="gray" points="8,-554 8,-164 "/>
<path fill="none" stroke="gray" d="M8,-164C8,-158 14,-152 20,-152"/>
<text text-anchor="middle" x="286" y="-553.2" font-family="Times New Roman,serif" font-size="11.00" fill="gray">PEAR2</text>
</g>
<g id="graph3" class="cluster"><title>cluster_PEAR2\Net</title>
<polyline fill="none" stroke="gray" points="28,-160 544,-160 "/>
<path fill="none" stroke="gray" d="M544,-160C550,-160 556,-166 556,-172"/>
<polyline fill="none" stroke="gray" points="556,-172 556,-526 "/>
<path fill="none" stroke="gray" d="M556,-526C556,-532 550,-538 544,-538"/>
<polyline fill="none" stroke="gray" points="544,-538 28,-538 "/>
<path fill="none" stroke="gray" d="M28,-538C22,-538 16,-532 16,-526"/>
<polyline fill="none" stroke="gray" points="16,-526 16,-172 "/>
<path fill="none" stroke="gray" d="M16,-172C16,-166 22,-160 28,-160"/>
<text text-anchor="middle" x="286" y="-525.2" font-family="Times New Roman,serif" font-size="11.00" fill="gray">Net</text>
</g>
<g id="graph4" class="cluster"><title>cluster_PEAR2\Net\Transmitter</title>
<polyline fill="none" stroke="gray" points="36,-168 536,-168 "/>
<path fill="none" stroke="gray" d="M536,-168C542,-168 548,-174 548,-180"/>
<polyline fill="none" stroke="gray" points="548,-180 548,-498 "/>
<path fill="none" stroke="gray" d="M548,-498C548,-504 542,-510 536,-510"/>
<polyline fill="none" stroke="gray" points="536,-510 36,-510 "/>
<path fill="none" stroke="gray" d="M36,-510C30,-510 24,-504 24,-498"/>
<polyline fill="none" stroke="gray" points="24,-498 24,-180 "/>
<path fill="none" stroke="gray" d="M24,-180C24,-174 30,-168 36,-168"/>
<text text-anchor="middle" x="286" y="-497.2" font-family="Times New Roman,serif" font-size="11.00" fill="gray">Transmitter</text>
</g>
<!-- \\PEAR2\\Net\\Transmitter\\Exception -->
<g id="node4" class="node"><title>\\PEAR2\\Net\\Transmitter\\Exception</title>
<a xlink:href="Exception.html" xlink:title="Exception" target="_parent">
<polygon fill="none" stroke="black" points="280.5,-320 203.5,-320 203.5,-284 280.5,-284 280.5,-320"/>
<text text-anchor="middle" x="242" y="-299.2" font-family="Courier,monospace" font-size="11.00">Exception</text>
</a>
</g>
<!-- \\PEAR2\\Net\\Transmitter\\FilterCollection -->
<g id="node5" class="node"><title>\\PEAR2\\Net\\Transmitter\\FilterCollection</title>
<a xlink:href="FilterCollection.html" xlink:title="FilterCollection" target="_parent">
<polygon fill="none" stroke="black" points="529.5,-212 404.5,-212 404.5,-176 529.5,-176 529.5,-212"/>
<text text-anchor="middle" x="467" y="-191.2" font-family="Courier,monospace" font-size="11.00">FilterCollection</text>
</a>
</g>
<!-- \\SeekableIterator -->
<g id="node22" class="node"><title>\\SeekableIterator</title>
<ellipse fill="none" stroke="black" cx="242" cy="-72" rx="74.187" ry="18"/>
<text text-anchor="middle" x="242" y="-68.3" font-family="Times New Roman,serif" font-size="14.00" fill="gray">\\SeekableIterator</text>
</g>
<!-- \\PEAR2\\Net\\Transmitter\\FilterCollection&#45;&gt;\\SeekableIterator -->
<g id="edge18" class="edge"><title>\\PEAR2\\Net\\Transmitter\\FilterCollection&#45;&gt;\\SeekableIterator</title>
<path fill="none" stroke="black" stroke-dasharray="1,5" d="M442.664,-175.9C415.07,-155.154 367.17,-121.169 322,-99 314.785,-95.4588 306.988,-92.1848 299.201,-89.2285"/>
<polygon fill="none" stroke="black" points="300.341,-85.9188 289.747,-85.7834 297.945,-92.4958 300.341,-85.9188"/>
</g>
<!-- \\Countable -->
<g id="node24" class="node"><title>\\Countable</title>
<ellipse fill="none" stroke="black" cx="242" cy="-18" rx="52.7911" ry="18"/>
<text text-anchor="middle" x="242" y="-14.3" font-family="Times New Roman,serif" font-size="14.00" fill="gray">\\Countable</text>
</g>
<!-- \\PEAR2\\Net\\Transmitter\\FilterCollection&#45;&gt;\\Countable -->
<g id="edge20" class="edge"><title>\\PEAR2\\Net\\Transmitter\\FilterCollection&#45;&gt;\\Countable</title>
<path fill="none" stroke="black" stroke-dasharray="1,5" d="M453.001,-175.722C429.989,-144.621 379.089,-81.2622 322,-45 313.737,-39.7513 304.335,-35.3928 294.971,-31.8201"/>
<polygon fill="none" stroke="black" points="295.869,-28.4252 285.275,-28.377 293.527,-35.0216 295.869,-28.4252"/>
</g>
<!-- \\PEAR2\\Net\\Transmitter\\LockException -->
<g id="node6" class="node"><title>\\PEAR2\\Net\\Transmitter\\LockException</title>
<a xlink:href="LockException.html" xlink:title="LockException" target="_parent">
<polygon fill="none" stroke="black" points="519,-266 415,-266 415,-230 519,-230 519,-266"/>
<text text-anchor="middle" x="467" y="-245.2" font-family="Courier,monospace" font-size="11.00">LockException</text>
</a>
</g>
<!-- \\PEAR2\\Net\\Transmitter\\LockException&#45;&gt;\\PEAR2\\Net\\Transmitter\\Exception -->
<g id="edge22" class="edge"><title>\\PEAR2\\Net\\Transmitter\\LockException&#45;&gt;\\PEAR2\\Net\\Transmitter\\Exception</title>
<path fill="none" stroke="black" stroke-dasharray="1,5" d="M414.839,-260.389C377.462,-269.44 327.14,-281.625 290.618,-290.469"/>
<polygon fill="none" stroke="black" points="289.6,-287.114 280.705,-292.87 291.248,-293.918 289.6,-287.114"/>
</g>
<!-- \\RuntimeException -->
<g id="node15" class="node"><title>\\RuntimeException</title>
<ellipse fill="none" stroke="black" cx="242" cy="-126" rx="79.8859" ry="18"/>
<text text-anchor="middle" x="242" y="-122.3" font-family="Times New Roman,serif" font-size="14.00" fill="gray">\RuntimeException</text>
</g>
<!-- \\PEAR2\\Net\\Transmitter\\LockException&#45;&gt;\\RuntimeException -->
<g id="edge6" class="edge"><title>\\PEAR2\\Net\\Transmitter\\LockException&#45;&gt;\\RuntimeException</title>
<path fill="none" stroke="black" d="M414.747,-231.044C407.616,-228.037 400.509,-224.677 394,-221 358.464,-200.926 356.602,-185.645 322,-164 311.921,-157.695 300.637,-151.699 289.822,-146.412"/>
<polygon fill="none" stroke="black" points="291.013,-143.102 280.48,-141.957 288,-149.421 291.013,-143.102"/>
</g>
<!-- \\PEAR2\\Net\\Transmitter\\NetworkStream -->
<g id="node7" class="node"><title>\\PEAR2\\Net\\Transmitter\\NetworkStream</title>
<a xlink:href="NetworkStream.html" xlink:title="NetworkStream" target="_parent">
<polygon fill="none" stroke="black" points="294,-455 190,-455 190,-419 294,-419 294,-455"/>
<text text-anchor="middle" x="242" y="-434.2" font-family="Courier,monospace" font-size="11.00">NetworkStream</text>
</a>
</g>
<!-- \\PEAR2\\Net\\Transmitter\\Stream -->
<g id="node9" class="node"><title>\\PEAR2\\Net\\Transmitter\\Stream</title>
<a xlink:href="Stream.html" xlink:title="Stream" target="_parent">
<polygon fill="none" stroke="black" points="89.5,-455 32.5,-455 32.5,-419 89.5,-419 89.5,-455"/>
<text text-anchor="middle" x="61" y="-434.2" font-family="Courier,monospace" font-size="11.00">Stream</text>
</a>
</g>
<!-- \\PEAR2\\Net\\Transmitter\\NetworkStream&#45;&gt;\\PEAR2\\Net\\Transmitter\\Stream -->
<g id="edge8" class="edge"><title>\\PEAR2\\Net\\Transmitter\\NetworkStream&#45;&gt;\\PEAR2\\Net\\Transmitter\\Stream</title>
<path fill="none" stroke="black" d="M189.706,-437C161.104,-437 126.094,-437 99.9689,-437"/>
<polygon fill="none" stroke="black" points="99.7165,-433.5 89.7164,-437 99.7164,-440.5 99.7165,-433.5"/>
</g>
<!-- \\PEAR2\\Net\\Transmitter\\SocketException -->
<g id="node8" class="node"><title>\\PEAR2\\Net\\Transmitter\\SocketException</title>
<a xlink:href="SocketException.html" xlink:title="SocketException" target="_parent">
<polygon fill="none" stroke="black" points="526,-374 408,-374 408,-338 526,-338 526,-374"/>
<text text-anchor="middle" x="467" y="-353.2" font-family="Courier,monospace" font-size="11.00">SocketException</text>
</a>
</g>
<!-- \\PEAR2\\Net\\Transmitter\\SocketException&#45;&gt;\\PEAR2\\Net\\Transmitter\\Exception -->
<g id="edge24" class="edge"><title>\\PEAR2\\Net\\Transmitter\\SocketException&#45;&gt;\\PEAR2\\Net\\Transmitter\\Exception</title>
<path fill="none" stroke="black" stroke-dasharray="1,5" d="M407.992,-341.953C371.463,-333.108 324.895,-321.831 290.554,-313.515"/>
<polygon fill="none" stroke="black" points="291.306,-310.096 280.763,-311.144 289.658,-316.9 291.306,-310.096"/>
</g>
<!-- \\PEAR2\\Net\\Transmitter\\SocketException&#45;&gt;\\RuntimeException -->
<g id="edge10" class="edge"><title>\\PEAR2\\Net\\Transmitter\\SocketException&#45;&gt;\\RuntimeException</title>
<path fill="none" stroke="black" d="M407.706,-339.032C402.739,-336.178 398.068,-332.859 394,-329 335.953,-273.933 377.523,-221.61 322,-164 314.95,-156.685 306.206,-150.602 297.13,-145.604"/>
<polygon fill="none" stroke="black" points="298.495,-142.372 287.994,-140.964 295.325,-148.613 298.495,-142.372"/>
</g>
<!-- \\PEAR2\\Net\\Transmitter\\StreamException -->
<g id="node10" class="node"><title>\\PEAR2\\Net\\Transmitter\\StreamException</title>
<a xlink:href="StreamException.html" xlink:title="StreamException" target="_parent">
<polygon fill="none" stroke="black" points="526,-320 408,-320 408,-284 526,-284 526,-320"/>
<text text-anchor="middle" x="467" y="-299.2" font-family="Courier,monospace" font-size="11.00">StreamException</text>
</a>
</g>
<!-- \\PEAR2\\Net\\Transmitter\\StreamException&#45;&gt;\\PEAR2\\Net\\Transmitter\\Exception -->
<g id="edge26" class="edge"><title>\\PEAR2\\Net\\Transmitter\\StreamException&#45;&gt;\\PEAR2\\Net\\Transmitter\\Exception</title>
<path fill="none" stroke="black" stroke-dasharray="1,5" d="M407.992,-302C371.619,-302 325.295,-302 290.997,-302"/>
<polygon fill="none" stroke="black" points="290.763,-298.5 280.763,-302 290.763,-305.5 290.763,-298.5"/>
</g>
<!-- \\PEAR2\\Net\\Transmitter\\StreamException&#45;&gt;\\RuntimeException -->
<g id="edge12" class="edge"><title>\\PEAR2\\Net\\Transmitter\\StreamException&#45;&gt;\\RuntimeException</title>
<path fill="none" stroke="black" d="M407.976,-284.112C403.013,-281.453 398.266,-278.429 394,-275 348.168,-238.159 366.136,-202.856 322,-164 313.949,-156.912 304.344,-150.847 294.65,-145.779"/>
<polygon fill="none" stroke="black" points="295.895,-142.491 285.376,-141.224 292.809,-148.774 295.895,-142.491"/>
</g>
<!-- \\PEAR2\\Net\\Transmitter\\TcpClient -->
<g id="node11" class="node"><title>\\PEAR2\\Net\\Transmitter\\TcpClient</title>
<a xlink:href="TcpClient.html" xlink:title="TcpClient" target="_parent">
<polygon fill="none" stroke="black" points="505.5,-482 428.5,-482 428.5,-446 505.5,-446 505.5,-482"/>
<text text-anchor="middle" x="467" y="-461.2" font-family="Courier,monospace" font-size="11.00">TcpClient</text>
</a>
</g>
<!-- \\PEAR2\\Net\\Transmitter\\TcpClient&#45;&gt;\\PEAR2\\Net\\Transmitter\\NetworkStream -->
<g id="edge14" class="edge"><title>\\PEAR2\\Net\\Transmitter\\TcpClient&#45;&gt;\\PEAR2\\Net\\Transmitter\\NetworkStream</title>
<path fill="none" stroke="black" d="M428.423,-459.45C394.51,-455.344 343.99,-449.227 304.244,-444.415"/>
<polygon fill="none" stroke="black" points="304.476,-440.918 294.127,-443.19 303.634,-447.867 304.476,-440.918"/>
</g>
<!-- \\PEAR2\\Net\\Transmitter\\TcpServerConnection -->
<g id="node12" class="node"><title>\\PEAR2\\Net\\Transmitter\\TcpServerConnection</title>
<a xlink:href="TcpServerConnection.html" xlink:title="TcpServerConnection" target="_parent">
<polygon fill="none" stroke="black" points="539.5,-428 394.5,-428 394.5,-392 539.5,-392 539.5,-428"/>
<text text-anchor="middle" x="467" y="-407.2" font-family="Courier,monospace" font-size="11.00">TcpServerConnection</text>
</a>
</g>
<!-- \\PEAR2\\Net\\Transmitter\\TcpServerConnection&#45;&gt;\\PEAR2\\Net\\Transmitter\\NetworkStream -->
<g id="edge16" class="edge"><title>\\PEAR2\\Net\\Transmitter\\TcpServerConnection&#45;&gt;\\PEAR2\\Net\\Transmitter\\NetworkStream</title>
<path fill="none" stroke="black" d="M394.214,-418.692C365.184,-422.206 332.023,-426.221 304.166,-429.594"/>
<polygon fill="none" stroke="black" points="303.667,-426.129 294.161,-430.806 304.509,-433.078 303.667,-426.129"/>
</g>
</g>
</svg>
