<?xml version="1.0" encoding="UTF-8" standalone="no"?>
<!DOCTYPE svg PUBLIC "-//W3C//DTD SVG 1.1//EN"
 "http://www.w3.org/Graphics/SVG/1.1/DTD/svg11.dtd">
<!-- Generated by graphviz version 2.38.0 (20140413.2041)
 -->
<!-- Title: TcpServerConnection Pages: 1 -->
<svg width="116pt" height="140pt"
 viewBox="0.00 0.00 116.00 140.00" xmlns="http://www.w3.org/2000/svg" xmlns:xlink="http://www.w3.org/1999/xlink">
<g id="graph0" class="graph" transform="scale(1 1) rotate(0) translate(4 136)">
<title>TcpServerConnection</title>
<polygon fill="white" stroke="none" points="-4,4 -4,-136 112,-136 112,4 -4,4"/>
<!-- Node3 -->
<g id="node1" class="node"><title>Node3</title>
<polygon fill="#bfbfbf" stroke="black" points="0,-0.5 0,-19.5 108,-19.5 108,-0.5 0,-0.5"/>
<text text-anchor="middle" x="54" y="-7.5" font-family="Helvetica,sans-Serif" font-size="10.00">TcpServerConnection</text>
</g>
<!-- Node4 -->
<g id="node2" class="node"><title>Node4</title>
<g id="a_node2"><a xlink:href="class_p_e_a_r2_1_1_net_1_1_transmitter_1_1_network_stream.html" target="_top" xlink:title="NetworkStream">
<polygon fill="white" stroke="black" points="12.5,-56.5 12.5,-75.5 95.5,-75.5 95.5,-56.5 12.5,-56.5"/>
<text text-anchor="middle" x="54" y="-63.5" font-family="Helvetica,sans-Serif" font-size="10.00">NetworkStream</text>
</a>
</g>
</g>
<!-- Node4&#45;&gt;Node3 -->
<g id="edge1" class="edge"><title>Node4&#45;&gt;Node3</title>
<path fill="none" stroke="midnightblue" d="M54,-45.8045C54,-36.9102 54,-26.7798 54,-19.7511"/>
<polygon fill="midnightblue" stroke="midnightblue" points="50.5001,-46.083 54,-56.083 57.5001,-46.083 50.5001,-46.083"/>
</g>
<!-- Node5 -->
<g id="node3" class="node"><title>Node5</title>
<g id="a_node3"><a xlink:href="class_p_e_a_r2_1_1_net_1_1_transmitter_1_1_stream.html" target="_top" xlink:title="Stream">
<polygon fill="white" stroke="black" points="30,-112.5 30,-131.5 78,-131.5 78,-112.5 30,-112.5"/>
<text text-anchor="middle" x="54" y="-119.5" font-family="Helvetica,sans-Serif" font-size="10.00">Stream</text>
</a>
</g>
</g>
<!-- Node5&#45;&gt;Node4 -->
<g id="edge2" class="edge"><title>Node5&#45;&gt;Node4</title>
<path fill="none" stroke="midnightblue" d="M54,-101.805C54,-92.9102 54,-82.7798 54,-75.7511"/>
<polygon fill="midnightblue" stroke="midnightblue" points="50.5001,-102.083 54,-112.083 57.5001,-102.083 50.5001,-102.083"/>
</g>
</g>
</svg>
