<?xml version="1.0" encoding="UTF-8" standalone="no"?>
<!DOCTYPE svg PUBLIC "-//W3C//DTD SVG 1.1//EN"
 "http://www.w3.org/Graphics/SVG/1.1/DTD/svg11.dtd">
<!-- Generated by graphviz version 2.38.0 (20140413.2041)
 -->
<!-- Title: LockException Pages: 1 -->
<svg width="182pt" height="84pt"
 viewBox="0.00 0.00 182.00 84.00" xmlns="http://www.w3.org/2000/svg" xmlns:xlink="http://www.w3.org/1999/xlink">
<g id="graph0" class="graph" transform="scale(1 1) rotate(0) translate(4 80)">
<title>LockException</title>
<polygon fill="white" stroke="none" points="-4,4 -4,-80 178,-80 178,4 -4,4"/>
<!-- Node3 -->
<g id="node1" class="node"><title>Node3</title>
<polygon fill="#bfbfbf" stroke="black" points="55.5,-0.5 55.5,-19.5 136.5,-19.5 136.5,-0.5 55.5,-0.5"/>
<text text-anchor="middle" x="96" y="-7.5" font-family="Helvetica,sans-Serif" font-size="10.00">LockException</text>
</g>
<!-- Node4 -->
<g id="node2" class="node"><title>Node4</title>
<polygon fill="white" stroke="#bfbfbf" points="0,-56.5 0,-75.5 96,-75.5 96,-56.5 0,-56.5"/>
<text text-anchor="middle" x="48" y="-63.5" font-family="Helvetica,sans-Serif" font-size="10.00">RuntimeException</text>
</g>
<!-- Node4&#45;&gt;Node3 -->
<g id="edge1" class="edge"><title>Node4&#45;&gt;Node3</title>
<path fill="none" stroke="midnightblue" d="M62.7277,-48.4314C71.1401,-38.9673 81.3487,-27.4827 88.2213,-19.7511"/>
<polygon fill="midnightblue" stroke="midnightblue" points="59.954,-46.2836 55.9262,-56.083 65.1858,-50.9342 59.954,-46.2836"/>
</g>
<!-- Node5 -->
<g id="node3" class="node"><title>Node5</title>
<g id="a_node3"><a xlink:href="interface_p_e_a_r2_1_1_net_1_1_transmitter_1_1_exception.html" target="_top" xlink:title="Exception">
<polygon fill="white" stroke="black" points="114,-56.5 114,-75.5 174,-75.5 174,-56.5 114,-56.5"/>
<text text-anchor="middle" x="144" y="-63.5" font-family="Helvetica,sans-Serif" font-size="10.00">Exception</text>
</a>
</g>
</g>
<!-- Node5&#45;&gt;Node3 -->
<g id="edge2" class="edge"><title>Node5&#45;&gt;Node3</title>
<path fill="none" stroke="midnightblue" d="M129.272,-48.4314C120.86,-38.9673 110.651,-27.4827 103.779,-19.7511"/>
<polygon fill="midnightblue" stroke="midnightblue" points="126.814,-50.9342 136.074,-56.083 132.046,-46.2836 126.814,-50.9342"/>
</g>
</g>
</svg>
