<?xml version="1.0" encoding="UTF-8" standalone="no"?>
<!DOCTYPE svg PUBLIC "-//W3C//DTD SVG 1.1//EN"
 "http://www.w3.org/Graphics/SVG/1.1/DTD/svg11.dtd">
<!-- Generated by graphviz version 2.38.0 (20140413.2041)
 -->
<!-- Title: TcpClient Pages: 1 -->
<svg width="91pt" height="140pt"
 viewBox="0.00 0.00 91.00 140.00" xmlns="http://www.w3.org/2000/svg" xmlns:xlink="http://www.w3.org/1999/xlink">
<g id="graph0" class="graph" transform="scale(1 1) rotate(0) translate(4 136)">
<title>TcpClient</title>
<polygon fill="white" stroke="none" points="-4,4 -4,-136 87,-136 87,4 -4,4"/>
<!-- Node3 -->
<g id="node1" class="node"><title>Node3</title>
<polygon fill="#bfbfbf" stroke="black" points="13,-0.5 13,-19.5 70,-19.5 70,-0.5 13,-0.5"/>
<text text-anchor="middle" x="41.5" y="-7.5" font-family="Helvetica,sans-Serif" font-size="10.00">TcpClient</text>
</g>
<!-- Node4 -->
<g id="node2" class="node"><title>Node4</title>
<g id="a_node2"><a xlink:href="class_p_e_a_r2_1_1_net_1_1_transmitter_1_1_network_stream.html" target="_top" xlink:title="NetworkStream">
<polygon fill="white" stroke="black" points="0,-56.5 0,-75.5 83,-75.5 83,-56.5 0,-56.5"/>
<text text-anchor="middle" x="41.5" y="-63.5" font-family="Helvetica,sans-Serif" font-size="10.00">NetworkStream</text>
</a>
</g>
</g>
<!-- Node4&#45;&gt;Node3 -->
<g id="edge1" class="edge"><title>Node4&#45;&gt;Node3</title>
<path fill="none" stroke="midnightblue" d="M41.5,-45.8045C41.5,-36.9102 41.5,-26.7798 41.5,-19.7511"/>
<polygon fill="midnightblue" stroke="midnightblue" points="38.0001,-46.083 41.5,-56.083 45.0001,-46.083 38.0001,-46.083"/>
</g>
<!-- Node5 -->
<g id="node3" class="node"><title>Node5</title>
<g id="a_node3"><a xlink:href="class_p_e_a_r2_1_1_net_1_1_transmitter_1_1_stream.html" target="_top" xlink:title="Stream">
<polygon fill="white" stroke="black" points="17.5,-112.5 17.5,-131.5 65.5,-131.5 65.5,-112.5 17.5,-112.5"/>
<text text-anchor="middle" x="41.5" y="-119.5" font-family="Helvetica,sans-Serif" font-size="10.00">Stream</text>
</a>
</g>
</g>
<!-- Node5&#45;&gt;Node4 -->
<g id="edge2" class="edge"><title>Node5&#45;&gt;Node4</title>
<path fill="none" stroke="midnightblue" d="M41.5,-101.805C41.5,-92.9102 41.5,-82.7798 41.5,-75.7511"/>
<polygon fill="midnightblue" stroke="midnightblue" points="38.0001,-102.083 41.5,-112.083 45.0001,-102.083 38.0001,-102.083"/>
</g>
</g>
</svg>
