<?xml version="1.0" encoding="UTF-8" standalone="no"?>
<!DOCTYPE svg PUBLIC "-//W3C//DTD SVG 1.1//EN"
 "http://www.w3.org/Graphics/SVG/1.1/DTD/svg11.dtd">
<!-- Generated by graphviz version 2.38.0 (20140413.2041)
 -->
<!-- Title: SocketException Pages: 1 -->
<svg width="182pt" height="140pt"
 viewBox="0.00 0.00 182.00 140.00" xmlns="http://www.w3.org/2000/svg" xmlns:xlink="http://www.w3.org/1999/xlink">
<g id="graph0" class="graph" transform="scale(1 1) rotate(0) translate(4 136)">
<title>SocketException</title>
<polygon fill="white" stroke="none" points="-4,4 -4,-136 178,-136 178,4 -4,4"/>
<!-- Node4 -->
<g id="node1" class="node"><title>Node4</title>
<polygon fill="#bfbfbf" stroke="black" points="50.5,-0.5 50.5,-19.5 141.5,-19.5 141.5,-0.5 50.5,-0.5"/>
<text text-anchor="middle" x="96" y="-7.5" font-family="Helvetica,sans-Serif" font-size="10.00">SocketException</text>
</g>
<!-- Node5 -->
<g id="node2" class="node"><title>Node5</title>
<g id="a_node2"><a xlink:href="class_p_e_a_r2_1_1_net_1_1_transmitter_1_1_stream_exception.html" target="_top" xlink:title="StreamException">
<polygon fill="white" stroke="black" points="50,-56.5 50,-75.5 142,-75.5 142,-56.5 50,-56.5"/>
<text text-anchor="middle" x="96" y="-63.5" font-family="Helvetica,sans-Serif" font-size="10.00">StreamException</text>
</a>
</g>
</g>
<!-- Node5&#45;&gt;Node4 -->
<g id="edge1" class="edge"><title>Node5&#45;&gt;Node4</title>
<path fill="none" stroke="midnightblue" d="M96,-45.8045C96,-36.9102 96,-26.7798 96,-19.7511"/>
<polygon fill="midnightblue" stroke="midnightblue" points="92.5001,-46.083 96,-56.083 99.5001,-46.083 92.5001,-46.083"/>
</g>
<!-- Node6 -->
<g id="node3" class="node"><title>Node6</title>
<polygon fill="white" stroke="#bfbfbf" points="0,-112.5 0,-131.5 96,-131.5 96,-112.5 0,-112.5"/>
<text text-anchor="middle" x="48" y="-119.5" font-family="Helvetica,sans-Serif" font-size="10.00">RuntimeException</text>
</g>
<!-- Node6&#45;&gt;Node5 -->
<g id="edge2" class="edge"><title>Node6&#45;&gt;Node5</title>
<path fill="none" stroke="midnightblue" d="M62.7277,-104.431C71.1401,-94.9673 81.3487,-83.4827 88.2213,-75.7511"/>
<polygon fill="midnightblue" stroke="midnightblue" points="59.954,-102.284 55.9262,-112.083 65.1858,-106.934 59.954,-102.284"/>
</g>
<!-- Node7 -->
<g id="node4" class="node"><title>Node7</title>
<g id="a_node4"><a xlink:href="interface_p_e_a_r2_1_1_net_1_1_transmitter_1_1_exception.html" target="_top" xlink:title="Exception">
<polygon fill="white" stroke="black" points="114,-112.5 114,-131.5 174,-131.5 174,-112.5 114,-112.5"/>
<text text-anchor="middle" x="144" y="-119.5" font-family="Helvetica,sans-Serif" font-size="10.00">Exception</text>
</a>
</g>
</g>
<!-- Node7&#45;&gt;Node5 -->
<g id="edge3" class="edge"><title>Node7&#45;&gt;Node5</title>
<path fill="none" stroke="midnightblue" d="M129.272,-104.431C120.86,-94.9673 110.651,-83.4827 103.779,-75.7511"/>
<polygon fill="midnightblue" stroke="midnightblue" points="126.814,-106.934 136.074,-112.083 132.046,-102.284 126.814,-106.934"/>
</g>
</g>
</svg>
