<?xml version="1.0" encoding="UTF-8" standalone="no"?>
<!DOCTYPE svg PUBLIC "-//W3C//DTD SVG 1.1//EN"
 "http://www.w3.org/Graphics/SVG/1.1/DTD/svg11.dtd">
<!-- Generated by graphviz version 2.38.0 (20140413.2041)
 -->
<!-- Title: Stream Pages: 1 -->
<svg width="192pt" height="140pt"
 viewBox="0.00 0.00 191.50 140.00" xmlns="http://www.w3.org/2000/svg" xmlns:xlink="http://www.w3.org/1999/xlink">
<g id="graph0" class="graph" transform="scale(1 1) rotate(0) translate(4 136)">
<title>Stream</title>
<polygon fill="white" stroke="none" points="-4,4 -4,-136 187.5,-136 187.5,4 -4,4"/>
<!-- Node0 -->
<g id="node1" class="node"><title>Node0</title>
<polygon fill="#bfbfbf" stroke="black" points="54.5,-112.5 54.5,-131.5 102.5,-131.5 102.5,-112.5 54.5,-112.5"/>
<text text-anchor="middle" x="78.5" y="-119.5" font-family="Helvetica,sans-Serif" font-size="10.00">Stream</text>
</g>
<!-- Node1 -->
<g id="node2" class="node"><title>Node1</title>
<g id="a_node2"><a xlink:href="class_p_e_a_r2_1_1_net_1_1_transmitter_1_1_network_stream.html" target="_top" xlink:title="NetworkStream">
<polygon fill="white" stroke="black" points="37,-56.5 37,-75.5 120,-75.5 120,-56.5 37,-56.5"/>
<text text-anchor="middle" x="78.5" y="-63.5" font-family="Helvetica,sans-Serif" font-size="10.00">NetworkStream</text>
</a>
</g>
</g>
<!-- Node0&#45;&gt;Node1 -->
<g id="edge1" class="edge"><title>Node0&#45;&gt;Node1</title>
<path fill="none" stroke="midnightblue" d="M78.5,-101.805C78.5,-92.9102 78.5,-82.7798 78.5,-75.7511"/>
<polygon fill="midnightblue" stroke="midnightblue" points="75.0001,-102.083 78.5,-112.083 82.0001,-102.083 75.0001,-102.083"/>
</g>
<!-- Node2 -->
<g id="node3" class="node"><title>Node2</title>
<g id="a_node3"><a xlink:href="class_p_e_a_r2_1_1_net_1_1_transmitter_1_1_tcp_client.html" target="_top" xlink:title="TcpClient">
<polygon fill="white" stroke="black" points="0,-0.5 0,-19.5 57,-19.5 57,-0.5 0,-0.5"/>
<text text-anchor="middle" x="28.5" y="-7.5" font-family="Helvetica,sans-Serif" font-size="10.00">TcpClient</text>
</a>
</g>
</g>
<!-- Node1&#45;&gt;Node2 -->
<g id="edge2" class="edge"><title>Node1&#45;&gt;Node2</title>
<path fill="none" stroke="midnightblue" d="M63.4237,-48.7175C54.6109,-39.1997 43.8341,-27.5608 36.6028,-19.7511"/>
<polygon fill="midnightblue" stroke="midnightblue" points="60.8812,-51.1233 70.2435,-56.083 66.0176,-46.3674 60.8812,-51.1233"/>
</g>
<!-- Node3 -->
<g id="node4" class="node"><title>Node3</title>
<g id="a_node4"><a xlink:href="class_p_e_a_r2_1_1_net_1_1_transmitter_1_1_tcp_server_connection.html" target="_top" xlink:title="TcpServerConnection">
<polygon fill="white" stroke="black" points="75.5,-0.5 75.5,-19.5 183.5,-19.5 183.5,-0.5 75.5,-0.5"/>
<text text-anchor="middle" x="129.5" y="-7.5" font-family="Helvetica,sans-Serif" font-size="10.00">TcpServerConnection</text>
</a>
</g>
</g>
<!-- Node1&#45;&gt;Node3 -->
<g id="edge3" class="edge"><title>Node1&#45;&gt;Node3</title>
<path fill="none" stroke="midnightblue" d="M93.8779,-48.7175C102.867,-39.1997 113.859,-27.5608 121.235,-19.7511"/>
<polygon fill="midnightblue" stroke="midnightblue" points="91.2433,-46.4096 86.9216,-56.083 96.3324,-51.216 91.2433,-46.4096"/>
</g>
</g>
</svg>
