<?xml version="1.0" encoding="UTF-8" standalone="no"?>
<!DOCTYPE svg PUBLIC "-//W3C//DTD SVG 1.1//EN"
 "http://www.w3.org/Graphics/SVG/1.1/DTD/svg11.dtd">
<!-- Generated by graphviz version 2.38.0 (20140413.2041)
 -->
<!-- Title: Graphical Class Hierarchy Pages: 1 -->
<svg width="319pt" height="66pt"
 viewBox="0.00 0.00 319.00 66.00" xmlns="http://www.w3.org/2000/svg" xmlns:xlink="http://www.w3.org/1999/xlink">
<g id="graph0" class="graph" transform="scale(1 1) rotate(0) translate(4 62)">
<title>Graphical Class Hierarchy</title>
<polygon fill="white" stroke="none" points="-4,4 -4,-62 315,-62 315,4 -4,4"/>
<!-- Node0 -->
<g id="node1" class="node"><title>Node0</title>
<g id="a_node1"><a xlink:href="class_p_e_a_r2_1_1_net_1_1_transmitter_1_1_stream.html" target="_top" xlink:title="Stream">
<polygon fill="white" stroke="black" points="0,-19.5 0,-38.5 48,-38.5 48,-19.5 0,-19.5"/>
<text text-anchor="middle" x="24" y="-26.5" font-family="Helvetica,sans-Serif" font-size="10.00">Stream</text>
</a>
</g>
</g>
<!-- Node1 -->
<g id="node2" class="node"><title>Node1</title>
<g id="a_node2"><a xlink:href="class_p_e_a_r2_1_1_net_1_1_transmitter_1_1_network_stream.html" target="_top" xlink:title="NetworkStream">
<polygon fill="white" stroke="black" points="84,-19.5 84,-38.5 167,-38.5 167,-19.5 84,-19.5"/>
<text text-anchor="middle" x="125.5" y="-26.5" font-family="Helvetica,sans-Serif" font-size="10.00">NetworkStream</text>
</a>
</g>
</g>
<!-- Node0&#45;&gt;Node1 -->
<g id="edge1" class="edge"><title>Node0&#45;&gt;Node1</title>
<path fill="none" stroke="midnightblue" d="M58.1218,-29C66.4093,-29 75.3925,-29 83.9937,-29"/>
<polygon fill="midnightblue" stroke="midnightblue" points="58.0774,-25.5001 48.0774,-29 58.0774,-32.5001 58.0774,-25.5001"/>
</g>
<!-- Node2 -->
<g id="node3" class="node"><title>Node2</title>
<g id="a_node3"><a xlink:href="class_p_e_a_r2_1_1_net_1_1_transmitter_1_1_tcp_client.html" target="_top" xlink:title="TcpClient">
<polygon fill="white" stroke="black" points="228.5,-38.5 228.5,-57.5 285.5,-57.5 285.5,-38.5 228.5,-38.5"/>
<text text-anchor="middle" x="257" y="-45.5" font-family="Helvetica,sans-Serif" font-size="10.00">TcpClient</text>
</a>
</g>
</g>
<!-- Node1&#45;&gt;Node2 -->
<g id="edge2" class="edge"><title>Node1&#45;&gt;Node2</title>
<path fill="none" stroke="midnightblue" d="M177.149,-36.4311C194.532,-38.9816 213.34,-41.7411 228.226,-43.9251"/>
<polygon fill="midnightblue" stroke="midnightblue" points="177.521,-32.9484 167.119,-34.9596 176.505,-39.8742 177.521,-32.9484"/>
</g>
<!-- Node3 -->
<g id="node4" class="node"><title>Node3</title>
<g id="a_node4"><a xlink:href="class_p_e_a_r2_1_1_net_1_1_transmitter_1_1_tcp_server_connection.html" target="_top" xlink:title="TcpServerConnection">
<polygon fill="white" stroke="black" points="203,-0.5 203,-19.5 311,-19.5 311,-0.5 203,-0.5"/>
<text text-anchor="middle" x="257" y="-7.5" font-family="Helvetica,sans-Serif" font-size="10.00">TcpServerConnection</text>
</a>
</g>
</g>
<!-- Node1&#45;&gt;Node3 -->
<g id="edge3" class="edge"><title>Node1&#45;&gt;Node3</title>
<path fill="none" stroke="midnightblue" d="M177.142,-21.5699C185.526,-20.3397 194.243,-19.0609 202.691,-17.8214"/>
<polygon fill="midnightblue" stroke="midnightblue" points="176.505,-18.1258 167.119,-23.0404 177.521,-25.0516 176.505,-18.1258"/>
</g>
</g>
</svg>
