<?xml version="1.0" encoding="UTF-8" standalone="no"?>
<!DOCTYPE svg PUBLIC "-//W3C//DTD SVG 1.1//EN"
 "http://www.w3.org/Graphics/SVG/1.1/DTD/svg11.dtd">
<!-- Generated by graphviz version 2.38.0 (20140413.2041)
 -->
<!-- Title: Graphical Class Hierarchy Pages: 1 -->
<svg width="359pt" height="66pt"
 viewBox="0.00 0.00 359.00 66.00" xmlns="http://www.w3.org/2000/svg" xmlns:xlink="http://www.w3.org/1999/xlink">
<g id="graph0" class="graph" transform="scale(1 1) rotate(0) translate(4 62)">
<title>Graphical Class Hierarchy</title>
<polygon fill="white" stroke="none" points="-4,4 -4,-62 355,-62 355,4 -4,4"/>
<!-- Node11 -->
<g id="node1" class="node"><title>Node11</title>
<polygon fill="white" stroke="#bfbfbf" points="0,-38.5 0,-57.5 96,-57.5 96,-38.5 0,-38.5"/>
<text text-anchor="middle" x="48" y="-45.5" font-family="Helvetica,sans-Serif" font-size="10.00">RuntimeException</text>
</g>
<!-- Node1 -->
<g id="node2" class="node"><title>Node1</title>
<g id="a_node2"><a xlink:href="class_p_e_a_r2_1_1_net_1_1_transmitter_1_1_lock_exception.html" target="_top" xlink:title="LockException">
<polygon fill="white" stroke="black" points="137.5,-38.5 137.5,-57.5 218.5,-57.5 218.5,-38.5 137.5,-38.5"/>
<text text-anchor="middle" x="178" y="-45.5" font-family="Helvetica,sans-Serif" font-size="10.00">LockException</text>
</a>
</g>
</g>
<!-- Node11&#45;&gt;Node1 -->
<g id="edge1" class="edge"><title>Node11&#45;&gt;Node1</title>
<path fill="none" stroke="midnightblue" d="M106.606,-48C117.032,-48 127.685,-48 137.446,-48"/>
<polygon fill="midnightblue" stroke="midnightblue" points="106.299,-44.5001 96.2988,-48 106.299,-51.5001 106.299,-44.5001"/>
</g>
<!-- Node2 -->
<g id="node3" class="node"><title>Node2</title>
<g id="a_node3"><a xlink:href="class_p_e_a_r2_1_1_net_1_1_transmitter_1_1_stream_exception.html" target="_top" xlink:title="StreamException">
<polygon fill="white" stroke="black" points="132,-0.5 132,-19.5 224,-19.5 224,-0.5 132,-0.5"/>
<text text-anchor="middle" x="178" y="-7.5" font-family="Helvetica,sans-Serif" font-size="10.00">StreamException</text>
</a>
</g>
</g>
<!-- Node11&#45;&gt;Node2 -->
<g id="edge2" class="edge"><title>Node11&#45;&gt;Node2</title>
<path fill="none" stroke="midnightblue" d="M91.2242,-35.4647C108.637,-30.2952 128.492,-24.4009 144.711,-19.5859"/>
<polygon fill="midnightblue" stroke="midnightblue" points="89.8902,-32.2097 81.2998,-38.411 91.8824,-38.9202 89.8902,-32.2097"/>
</g>
<!-- Node3 -->
<g id="node4" class="node"><title>Node3</title>
<g id="a_node4"><a xlink:href="class_p_e_a_r2_1_1_net_1_1_transmitter_1_1_socket_exception.html" target="_top" xlink:title="SocketException">
<polygon fill="white" stroke="black" points="260,-0.5 260,-19.5 351,-19.5 351,-0.5 260,-0.5"/>
<text text-anchor="middle" x="305.5" y="-7.5" font-family="Helvetica,sans-Serif" font-size="10.00">SocketException</text>
</a>
</g>
</g>
<!-- Node2&#45;&gt;Node3 -->
<g id="edge3" class="edge"><title>Node2&#45;&gt;Node3</title>
<path fill="none" stroke="midnightblue" d="M234.465,-10C242.899,-10 251.51,-10 259.679,-10"/>
<polygon fill="midnightblue" stroke="midnightblue" points="234.308,-6.5001 224.308,-10 234.308,-13.5001 234.308,-6.5001"/>
</g>
<!-- Node0 -->
<g id="node5" class="node"><title>Node0</title>
<g id="a_node5"><a xlink:href="interface_p_e_a_r2_1_1_net_1_1_transmitter_1_1_exception.html" target="_top" xlink:title="Exception">
<polygon fill="white" stroke="black" points="18,-0.5 18,-19.5 78,-19.5 78,-0.5 18,-0.5"/>
<text text-anchor="middle" x="48" y="-7.5" font-family="Helvetica,sans-Serif" font-size="10.00">Exception</text>
</a>
</g>
</g>
<!-- Node0&#45;&gt;Node1 -->
<g id="edge4" class="edge"><title>Node0&#45;&gt;Node1</title>
<path fill="none" stroke="midnightblue" d="M87.8103,-21.5218C106.076,-26.9444 127.598,-33.3339 144.925,-38.4777"/>
<polygon fill="midnightblue" stroke="midnightblue" points="88.6278,-18.1136 78.0452,-18.6228 86.6355,-24.8241 88.6278,-18.1136"/>
</g>
<!-- Node0&#45;&gt;Node2 -->
<g id="edge5" class="edge"><title>Node0&#45;&gt;Node2</title>
<path fill="none" stroke="midnightblue" d="M88.2167,-10C102.053,-10 117.718,-10 131.996,-10"/>
<polygon fill="midnightblue" stroke="midnightblue" points="88.0452,-6.5001 78.0452,-10 88.0451,-13.5001 88.0452,-6.5001"/>
</g>
</g>
</svg>
