<?xml version="1.0" encoding="UTF-8" standalone="no"?>
<!DOCTYPE svg PUBLIC "-//W3C//DTD SVG 1.1//EN"
 "http://www.w3.org/Graphics/SVG/1.1/DTD/svg11.dtd">
<!-- Generated by graphviz version 2.38.0 (20140413.2041)
 -->
<!-- Title: Exception Pages: 1 -->
<svg width="200pt" height="140pt"
 viewBox="0.00 0.00 199.50 140.00" xmlns="http://www.w3.org/2000/svg" xmlns:xlink="http://www.w3.org/1999/xlink">
<g id="graph0" class="graph" transform="scale(1 1) rotate(0) translate(4 136)">
<title>Exception</title>
<polygon fill="white" stroke="none" points="-4,4 -4,-136 195.5,-136 195.5,4 -4,4"/>
<!-- Node0 -->
<g id="node1" class="node"><title>Node0</title>
<polygon fill="#bfbfbf" stroke="black" points="62.5,-112.5 62.5,-131.5 122.5,-131.5 122.5,-112.5 62.5,-112.5"/>
<text text-anchor="middle" x="92.5" y="-119.5" font-family="Helvetica,sans-Serif" font-size="10.00">Exception</text>
</g>
<!-- Node1 -->
<g id="node2" class="node"><title>Node1</title>
<g id="a_node2"><a xlink:href="class_p_e_a_r2_1_1_net_1_1_transmitter_1_1_lock_exception.html" target="_top" xlink:title="LockException">
<polygon fill="white" stroke="black" points="0,-56.5 0,-75.5 81,-75.5 81,-56.5 0,-56.5"/>
<text text-anchor="middle" x="40.5" y="-63.5" font-family="Helvetica,sans-Serif" font-size="10.00">LockException</text>
</a>
</g>
</g>
<!-- Node0&#45;&gt;Node1 -->
<g id="edge1" class="edge"><title>Node0&#45;&gt;Node1</title>
<path fill="none" stroke="midnightblue" d="M76.8206,-104.718C67.6553,-95.1997 56.4474,-83.5608 48.927,-75.7511"/>
<polygon fill="midnightblue" stroke="midnightblue" points="74.4557,-107.308 83.9133,-112.083 79.4979,-102.452 74.4557,-107.308"/>
</g>
<!-- Node2 -->
<g id="node3" class="node"><title>Node2</title>
<g id="a_node3"><a xlink:href="class_p_e_a_r2_1_1_net_1_1_transmitter_1_1_stream_exception.html" target="_top" xlink:title="StreamException">
<polygon fill="white" stroke="black" points="99.5,-56.5 99.5,-75.5 191.5,-75.5 191.5,-56.5 99.5,-56.5"/>
<text text-anchor="middle" x="145.5" y="-63.5" font-family="Helvetica,sans-Serif" font-size="10.00">StreamException</text>
</a>
</g>
</g>
<!-- Node0&#45;&gt;Node2 -->
<g id="edge2" class="edge"><title>Node0&#45;&gt;Node2</title>
<path fill="none" stroke="midnightblue" d="M108.481,-104.718C117.822,-95.1997 129.246,-83.5608 136.911,-75.7511"/>
<polygon fill="midnightblue" stroke="midnightblue" points="105.759,-102.494 101.252,-112.083 110.754,-107.398 105.759,-102.494"/>
</g>
<!-- Node3 -->
<g id="node4" class="node"><title>Node3</title>
<g id="a_node4"><a xlink:href="class_p_e_a_r2_1_1_net_1_1_transmitter_1_1_socket_exception.html" target="_top" xlink:title="SocketException">
<polygon fill="white" stroke="black" points="100,-0.5 100,-19.5 191,-19.5 191,-0.5 100,-0.5"/>
<text text-anchor="middle" x="145.5" y="-7.5" font-family="Helvetica,sans-Serif" font-size="10.00">SocketException</text>
</a>
</g>
</g>
<!-- Node2&#45;&gt;Node3 -->
<g id="edge3" class="edge"><title>Node2&#45;&gt;Node3</title>
<path fill="none" stroke="midnightblue" d="M145.5,-45.8045C145.5,-36.9102 145.5,-26.7798 145.5,-19.7511"/>
<polygon fill="midnightblue" stroke="midnightblue" points="142,-46.083 145.5,-56.083 149,-46.083 142,-46.083"/>
</g>
</g>
</svg>
