<?xml version="1.0" encoding="UTF-8" standalone="no"?>
<!DOCTYPE svg PUBLIC "-//W3C//DTD SVG 1.1//EN"
 "http://www.w3.org/Graphics/SVG/1.1/DTD/svg11.dtd">
<!-- Generated by graphviz version 2.30.1 (20130214.1330)
 -->
<!-- Title: G Pages: 1 -->
<svg width="596pt" height="618pt"
 viewBox="0.00 0.00 596.00 618.00" xmlns="http://www.w3.org/2000/svg" xmlns:xlink="http://www.w3.org/1999/xlink">
<g id="graph0" class="graph" transform="scale(1 1) rotate(0) translate(4 614)">
<title>G</title>
<polygon fill="white" stroke="white" points="-4,5 -4,-614 593,-614 593,5 -4,5"/>
<g id="clust1" class="cluster"><title>cluster_Global</title>
<path fill="none" stroke="gray" d="M20,-152C20,-152 568,-152 568,-152 574,-152 580,-158 580,-164 580,-164 580,-590 580,-590 580,-596 574,-602 568,-602 568,-602 20,-602 20,-602 14,-602 8,-596 8,-590 8,-590 8,-164 8,-164 8,-158 14,-152 20,-152"/>
<text text-anchor="middle" x="294" y="-589.2" font-family="Times New Roman,serif" font-size="11.00" fill="gray">\</text>
</g>
<g id="clust2" class="cluster"><title>cluster_\PEAR2</title>
<path fill="none" stroke="gray" d="M28,-160C28,-160 560,-160 560,-160 566,-160 572,-166 572,-172 572,-172 572,-562 572,-562 572,-568 566,-574 560,-574 560,-574 28,-574 28,-574 22,-574 16,-568 16,-562 16,-562 16,-172 16,-172 16,-166 22,-160 28,-160"/>
<text text-anchor="middle" x="294" y="-561.2" font-family="Times New Roman,serif" font-size="11.00" fill="gray">PEAR2</text>
</g>
<g id="clust3" class="cluster"><title>cluster_\PEAR2\Net</title>
<path fill="none" stroke="gray" d="M36,-168C36,-168 552,-168 552,-168 558,-168 564,-174 564,-180 564,-180 564,-534 564,-534 564,-540 558,-546 552,-546 552,-546 36,-546 36,-546 30,-546 24,-540 24,-534 24,-534 24,-180 24,-180 24,-174 30,-168 36,-168"/>
<text text-anchor="middle" x="294" y="-533.2" font-family="Times New Roman,serif" font-size="11.00" fill="gray">Net</text>
</g>
<g id="clust4" class="cluster"><title>cluster_\PEAR2\Net\Transmitter</title>
<path fill="none" stroke="gray" d="M44,-176C44,-176 544,-176 544,-176 550,-176 556,-182 556,-188 556,-188 556,-506 556,-506 556,-512 550,-518 544,-518 544,-518 44,-518 44,-518 38,-518 32,-512 32,-506 32,-506 32,-188 32,-188 32,-182 38,-176 44,-176"/>
<text text-anchor="middle" x="294" y="-505.2" font-family="Times New Roman,serif" font-size="11.00" fill="gray">Transmitter</text>
</g>
<!-- \\PEAR2\\Net\\Transmitter\\FilterCollection -->
<g id="node1" class="node"><title>\\PEAR2\\Net\\Transmitter\\FilterCollection</title>
<polygon fill="none" stroke="black" points="537.5,-220 412.5,-220 412.5,-184 537.5,-184 537.5,-220"/>
<text text-anchor="middle" x="475" y="-199.2" font-family="Courier,monospace" font-size="11.00">FilterCollection</text>
</g>
<!-- \\SeekableIterator -->
<g id="node10" class="node"><title>\\SeekableIterator</title>
<ellipse fill="none" stroke="black" cx="250" cy="-72" rx="71.4873" ry="18"/>
<text text-anchor="middle" x="250" y="-68.3" font-family="Times New Roman,serif" font-size="14.00" fill="gray">\SeekableIterator</text>
</g>
<!-- \\PEAR2\\Net\\Transmitter\\FilterCollection&#45;&gt;\\SeekableIterator -->
<g id="edge1" class="edge"><title>\\PEAR2\\Net\\Transmitter\\FilterCollection&#45;&gt;\\SeekableIterator</title>
<path fill="none" stroke="black" stroke-dasharray="1,5" d="M452.848,-183.82C425.856,-161.367 377.012,-123.184 330,-99 322.853,-95.3233 315.095,-91.9726 307.327,-88.9791"/>
<polygon fill="none" stroke="black" points="308.48,-85.674 297.886,-85.5071 306.064,-92.2438 308.48,-85.674"/>
</g>
<!-- \\Countable -->
<g id="node11" class="node"><title>\\Countable</title>
<ellipse fill="none" stroke="black" cx="250" cy="-18" rx="50.0912" ry="18"/>
<text text-anchor="middle" x="250" y="-14.3" font-family="Times New Roman,serif" font-size="14.00" fill="gray">\Countable</text>
</g>
<!-- \\PEAR2\\Net\\Transmitter\\FilterCollection&#45;&gt;\\Countable -->
<g id="edge2" class="edge"><title>\\PEAR2\\Net\\Transmitter\\FilterCollection&#45;&gt;\\Countable</title>
<path fill="none" stroke="black" stroke-dasharray="1,5" d="M462.126,-183.997C439.918,-151.665 388.976,-83.5502 330,-45 321.447,-39.4091 311.613,-34.8499 301.853,-31.1781"/>
<polygon fill="none" stroke="black" points="302.762,-27.7885 292.168,-27.7969 300.455,-34.3973 302.762,-27.7885"/>
</g>
<!-- \\PEAR2\\Net\\Transmitter\\LockException -->
<g id="node2" class="node"><title>\\PEAR2\\Net\\Transmitter\\LockException</title>
<polygon fill="none" stroke="black" points="527,-274 423,-274 423,-238 527,-238 527,-274"/>
<text text-anchor="middle" x="475" y="-253.2" font-family="Courier,monospace" font-size="11.00">LockException</text>
</g>
<!-- \\RuntimeException -->
<g id="node12" class="node"><title>\\RuntimeException</title>
<ellipse fill="none" stroke="black" cx="250" cy="-126" rx="79.8859" ry="18"/>
<text text-anchor="middle" x="250" y="-122.3" font-family="Times New Roman,serif" font-size="14.00" fill="gray">\RuntimeException</text>
</g>
<!-- \\PEAR2\\Net\\Transmitter\\LockException&#45;&gt;\\RuntimeException -->
<g id="edge3" class="edge"><title>\\PEAR2\\Net\\Transmitter\\LockException&#45;&gt;\\RuntimeException</title>
<path fill="none" stroke="black" d="M422.747,-239.044C415.616,-236.037 408.509,-232.677 402,-229 366.464,-208.926 363.721,-194.993 330,-172 317.655,-163.582 303.705,-155.134 291,-147.817"/>
<polygon fill="none" stroke="black" points="292.433,-144.605 282.01,-142.705 288.973,-150.691 292.433,-144.605"/>
</g>
<!-- \\PEAR2\\Net\\Transmitter\\Exception -->
<g id="node9" class="node"><title>\\PEAR2\\Net\\Transmitter\\Exception</title>
<polygon fill="none" stroke="black" points="288.5,-328 211.5,-328 211.5,-292 288.5,-292 288.5,-328"/>
<text text-anchor="middle" x="250" y="-307.2" font-family="Courier,monospace" font-size="11.00">Exception</text>
</g>
<!-- \\PEAR2\\Net\\Transmitter\\LockException&#45;&gt;\\PEAR2\\Net\\Transmitter\\Exception -->
<g id="edge4" class="edge"><title>\\PEAR2\\Net\\Transmitter\\LockException&#45;&gt;\\PEAR2\\Net\\Transmitter\\Exception</title>
<path fill="none" stroke="black" stroke-dasharray="1,5" d="M422.839,-268.389C385.462,-277.44 335.14,-289.625 298.618,-298.469"/>
<polygon fill="none" stroke="black" points="297.6,-295.114 288.705,-300.87 299.248,-301.918 297.6,-295.114"/>
</g>
<!-- \\PEAR2\\Net\\Transmitter\\NetworkStream -->
<g id="node3" class="node"><title>\\PEAR2\\Net\\Transmitter\\NetworkStream</title>
<polygon fill="none" stroke="black" points="302.5,-463 197.5,-463 197.5,-427 302.5,-427 302.5,-463"/>
<text text-anchor="start" x="216" y="-448.7" font-family="Courier,monospace" font-size="11.00">«abstract»</text>
<text text-anchor="start" x="206" y="-437.7" font-family="Courier,monospace" font-size="11.00">NetworkStream</text>
</g>
<!-- \\PEAR2\\Net\\Transmitter\\Stream -->
<g id="node5" class="node"><title>\\PEAR2\\Net\\Transmitter\\Stream</title>
<polygon fill="none" stroke="black" points="97.5,-463 40.5,-463 40.5,-427 97.5,-427 97.5,-463"/>
<text text-anchor="middle" x="69" y="-442.2" font-family="Courier,monospace" font-size="11.00">Stream</text>
</g>
<!-- \\PEAR2\\Net\\Transmitter\\NetworkStream&#45;&gt;\\PEAR2\\Net\\Transmitter\\Stream -->
<g id="edge5" class="edge"><title>\\PEAR2\\Net\\Transmitter\\NetworkStream&#45;&gt;\\PEAR2\\Net\\Transmitter\\Stream</title>
<path fill="none" stroke="black" d="M197.226,-445C168.64,-445 133.769,-445 107.768,-445"/>
<polygon fill="none" stroke="black" points="107.566,-441.5 97.5658,-445 107.566,-448.5 107.566,-441.5"/>
</g>
<!-- \\PEAR2\\Net\\Transmitter\\SocketException -->
<g id="node4" class="node"><title>\\PEAR2\\Net\\Transmitter\\SocketException</title>
<polygon fill="none" stroke="black" points="534,-382 416,-382 416,-346 534,-346 534,-382"/>
<text text-anchor="middle" x="475" y="-361.2" font-family="Courier,monospace" font-size="11.00">SocketException</text>
</g>
<!-- \\PEAR2\\Net\\Transmitter\\SocketException&#45;&gt;\\RuntimeException -->
<g id="edge6" class="edge"><title>\\PEAR2\\Net\\Transmitter\\SocketException&#45;&gt;\\RuntimeException</title>
<path fill="none" stroke="black" d="M415.706,-347.032C410.739,-344.178 406.068,-340.859 402,-337 343.953,-281.933 383.207,-231.756 330,-172 321.085,-161.988 309.452,-153.575 297.866,-146.795"/>
<polygon fill="none" stroke="black" points="299.506,-143.703 289.061,-141.93 296.121,-149.83 299.506,-143.703"/>
</g>
<!-- \\PEAR2\\Net\\Transmitter\\SocketException&#45;&gt;\\PEAR2\\Net\\Transmitter\\Exception -->
<g id="edge7" class="edge"><title>\\PEAR2\\Net\\Transmitter\\SocketException&#45;&gt;\\PEAR2\\Net\\Transmitter\\Exception</title>
<path fill="none" stroke="black" stroke-dasharray="1,5" d="M415.992,-349.953C379.463,-341.108 332.895,-329.831 298.554,-321.515"/>
<polygon fill="none" stroke="black" points="299.306,-318.096 288.763,-319.144 297.658,-324.9 299.306,-318.096"/>
</g>
<!-- \\PEAR2\\Net\\Transmitter\\StreamException -->
<g id="node6" class="node"><title>\\PEAR2\\Net\\Transmitter\\StreamException</title>
<polygon fill="none" stroke="black" points="534,-328 416,-328 416,-292 534,-292 534,-328"/>
<text text-anchor="middle" x="475" y="-307.2" font-family="Courier,monospace" font-size="11.00">StreamException</text>
</g>
<!-- \\PEAR2\\Net\\Transmitter\\StreamException&#45;&gt;\\RuntimeException -->
<g id="edge8" class="edge"><title>\\PEAR2\\Net\\Transmitter\\StreamException&#45;&gt;\\RuntimeException</title>
<path fill="none" stroke="black" d="M415.976,-292.112C411.013,-289.453 406.266,-286.429 402,-283 356.168,-246.159 372.569,-212.567 330,-172 319.929,-162.402 307.492,-153.984 295.491,-147.063"/>
<polygon fill="none" stroke="black" points="296.891,-143.838 286.445,-142.067 293.507,-149.966 296.891,-143.838"/>
</g>
<!-- \\PEAR2\\Net\\Transmitter\\StreamException&#45;&gt;\\PEAR2\\Net\\Transmitter\\Exception -->
<g id="edge9" class="edge"><title>\\PEAR2\\Net\\Transmitter\\StreamException&#45;&gt;\\PEAR2\\Net\\Transmitter\\Exception</title>
<path fill="none" stroke="black" stroke-dasharray="1,5" d="M415.992,-310C379.619,-310 333.295,-310 298.997,-310"/>
<polygon fill="none" stroke="black" points="298.763,-306.5 288.763,-310 298.763,-313.5 298.763,-306.5"/>
</g>
<!-- \\PEAR2\\Net\\Transmitter\\TcpClient -->
<g id="node7" class="node"><title>\\PEAR2\\Net\\Transmitter\\TcpClient</title>
<polygon fill="none" stroke="black" points="513.5,-490 436.5,-490 436.5,-454 513.5,-454 513.5,-490"/>
<text text-anchor="middle" x="475" y="-469.2" font-family="Courier,monospace" font-size="11.00">TcpClient</text>
</g>
<!-- \\PEAR2\\Net\\Transmitter\\TcpClient&#45;&gt;\\PEAR2\\Net\\Transmitter\\NetworkStream -->
<g id="edge10" class="edge"><title>\\PEAR2\\Net\\Transmitter\\TcpClient&#45;&gt;\\PEAR2\\Net\\Transmitter\\NetworkStream</title>
<path fill="none" stroke="black" d="M436.423,-467.45C402.624,-463.358 352.33,-457.269 312.646,-452.464"/>
<polygon fill="none" stroke="black" points="312.89,-448.968 302.541,-451.24 312.048,-455.917 312.89,-448.968"/>
</g>
<!-- \\PEAR2\\Net\\Transmitter\\TcpServerConnection -->
<g id="node8" class="node"><title>\\PEAR2\\Net\\Transmitter\\TcpServerConnection</title>
<polygon fill="none" stroke="black" points="547.5,-436 402.5,-436 402.5,-400 547.5,-400 547.5,-436"/>
<text text-anchor="middle" x="475" y="-415.2" font-family="Courier,monospace" font-size="11.00">TcpServerConnection</text>
</g>
<!-- \\PEAR2\\Net\\Transmitter\\TcpServerConnection&#45;&gt;\\PEAR2\\Net\\Transmitter\\NetworkStream -->
<g id="edge11" class="edge"><title>\\PEAR2\\Net\\Transmitter\\TcpServerConnection&#45;&gt;\\PEAR2\\Net\\Transmitter\\NetworkStream</title>
<path fill="none" stroke="black" d="M402.214,-426.692C373.297,-430.193 340.282,-434.19 312.493,-437.555"/>
<polygon fill="none" stroke="black" points="312.015,-434.087 302.509,-438.764 312.857,-441.036 312.015,-434.087"/>
</g>
</g>
</svg>
